<svg xmlns="http://www.w3.org/2000/svg" version="1.1" xmlns:xlink="http://www.w3.org/1999/xlink" xmlns:svgjs="http://svgjs.dev/svgjs" width="1000" height="510" viewBox="0 0 1000 510"><g transform="matrix(1,0,0,1,-0.6056348047761162,-0.16084778594773752)"><svg viewBox="0 0 396 202" data-background-color="#010101" preserveAspectRatio="xMidYMid meet" height="510" width="1000" xmlns="http://www.w3.org/2000/svg" xmlns:xlink="http://www.w3.org/1999/xlink"><g id="tight-bounds" transform="matrix(1,0,0,1,0.24008861730862918,0.06370833874792936)"><svg viewBox="0 0 395.52 201.87258153580862" height="201.87258153580862" width="395.52"><g><svg viewBox="0 0 395.52 201.87258153580862" height="201.87258153580862" width="395.52"><g><svg viewBox="0 0 395.52 201.87258153580862" height="201.87258153580862" width="395.52"><g id="textblocktransform"><svg viewBox="0 0 395.52 201.87258153580862" height="201.87258153580862" width="395.52" id="textblock"><g><svg viewBox="0 0 395.52 141.87203649775114" height="141.87203649775114" width="395.52"><path d="M394.594 30.429C392.735 15.703 387.435 11.609 387.435 11.609 371.165-3.559 350.86-0.29 332.619 1.889 300.414 1.978 268.339 5.217 236.208 6.955 168.767 7.22 100.749 2.861 33.643 13.611 27.339 16.91-6.54 14.259 1.121 32.314 3.129 39.824 10.456 48.159 10.232 55.051 11.236 56.259 12.631 53.49 13.226 55.228 15.309 59.911 18.711 57.702 21.501 60.47 17.614 67.863 20.403 74.019 23.062 80.469 18.377 82.147 12.371 81.352 9.675 86.919 9.396 90.954 7.89 90.188 6.235 90.011 5.026 89.894 2.59 90.335 2.999 91.602 4.394 95.931-1.594 98.435 2.162 102.676-0.422 107.271 3.948 111.247 3.353 116.224 3.278 117.225 3.687 118.08 4.338 118.315 7.22 119.582 3.018 122.056 3.464 124.736 33.029 143.055 65.104 130.391 95.394 138.814 103.259 132.924 97.346 140.905 100.489 139.668 102.943 138.225 104.728 144.204 107.499 140.817 107.927 139.845 107.276 137.548 108.8 137.989 109.6 138.225 110.307 138.166 110.418 136.811 110.586 134.779 109.117 136.046 108.726 134.985 112.947 129.625 111.906 142.378 115.866 141.848 115.68 140.287 114.528 138.048 116.889 138.343 119.232 136.105 119.306 134.249 121.389 139.285 121.463 140.375 121.835 141.141 122.43 141.671 128.938 136.193 135.409 143.615 142.233 141.141 146.417 138.431 150.433 142.614 154.672 141.583 156.16 140.758 157.666 139.285 159.098 141.759 176.632 142.29 195.319 140.081 211.943 141.848 256.364 138.549 303.835 143.203 350.674 138.844 361.719 137.165 373.192 134.779 383.958 132.865 383.958 132.865 392.679 127.622 392.679 104.06S394.538 83.443 394.817 64.682C395.096 45.921 396.398 45.155 394.538 30.429Z" opacity="1" fill="#31c48d" data-fill-palette-color="tertiary"></path><g transform="matrix(1,0,0,1,55.76832,26.068561146666667)"><svg width="283.98335999999995" viewBox="6.75 -37 133.5399932861328 42.20000076293945" height="89.7349142044178" data-palette-color="#ffffff"><path d="M28.1-36.4L28.1-36.4Q29.05-36 30.05-35.38 31.05-34.75 31.9-34.1 32.75-33.45 33.33-32.83 33.9-32.2 33.95-31.8L33.95-31.8Q33.1-32 32.25-32.08 31.4-32.15 30.7-32.15L30.7-32.15Q28.45-32.15 26.23-31.05 24-29.95 22-28.05 20-26.15 18.3-23.6 16.6-21.05 15.38-18.15 14.15-15.25 13.45-12.15 12.75-9.05 12.75-6.05L12.75-6.05Q12.75-2.15 14.05-0.25 15.35 1.65 17.85 1.65L17.85 1.65Q19.05 1.65 20.45 1.18 21.85 0.7 23.3-0.15 24.75-1 26.15-2.2 27.55-3.4 28.75-4.85L28.75-4.85Q30.5-6.95 31.9-9.63 33.3-12.3 34.27-15.3 35.25-18.3 35.77-21.48 36.3-24.65 36.3-27.7L36.3-27.7Q36.3-28.9 36.25-29.73 36.2-30.55 36.13-31.13 36.05-31.7 36-32.05 35.95-32.4 35.9-32.65L35.9-32.65Q36.5-32.35 37.23-31.93 37.95-31.5 38.58-30.68 39.2-29.85 39.63-28.5 40.05-27.15 40.05-25L40.05-25Q40.05-21.5 39.23-18.13 38.4-14.75 36.93-11.7 35.45-8.65 33.45-6 31.45-3.35 29.15-1.35L29.15-1.35Q26.15 1.3 22.75 2.75 19.35 4.2 16.2 4.2L16.2 4.2Q11.6 4.2 9.18 1.28 6.75-1.65 6.75-7.35L6.75-7.35Q6.75-10.4 7.43-13.8 8.1-17.2 9.33-20.5 10.55-23.8 12.25-26.78 13.95-29.75 15.98-32.02 18-34.3 20.33-35.65 22.65-37 25.1-37L25.1-37Q25.9-37 26.6-36.88 27.3-36.75 28.1-36.4ZM57.55-19.9L57.55-19.9Q57.5-18.95 57.22-17.93 56.95-16.9 56.55-16.07 56.15-15.25 55.7-14.7 55.25-14.15 54.85-14.15L54.85-14.15Q54.3-14.2 54.2-14.9L54.2-14.9Q54.2-15.05 54.32-15.38 54.45-15.7 54.6-16.1 54.75-16.5 54.87-16.9 55-17.3 55-17.6L55-17.6Q55-18.3 54.67-18.78 54.35-19.25 53.8-19.25L53.8-19.25Q51.8-19.25 50.75-16.75 49.7-14.25 49.7-9.4L49.7-9.4Q49.7-8.9 49.75-8.8L49.75-8.8Q50.8-8.85 51.62-8.88 52.45-8.9 53.25-8.9L53.25-8.9Q53.3-8.8 53.3-8.5L53.3-8.5Q53.3-8.05 53.1-7.85L53.1-7.85Q51.95-7.6 51.27-7.43 50.6-7.25 50.25-7.1 49.9-6.95 49.82-6.78 49.75-6.6 49.75-6.3L49.75-6.3Q49.75-5.9 49.77-5.5 49.8-5.1 49.8-4.5L49.8-4.5Q49.8-0.3 47.52 2.25 45.25 4.8 41.2 5.2L41.2 5.2Q40.5 5.15 39.75 4.8 39 4.45 38.32 3.9 37.65 3.35 37.15 2.68 36.65 2 36.45 1.3L36.45 1.3Q36.45-0.6 37.25-2.33 38.05-4.05 39.42-5.38 40.8-6.7 42.67-7.53 44.55-8.35 46.75-8.5L46.75-8.5Q46.75-9.75 46.5-10.95 46.25-12.15 45.97-13.28 45.7-14.4 45.45-15.48 45.2-16.55 45.2-17.6L45.2-17.6Q45.2-18.95 45.75-20.28 46.3-21.6 47.2-22.73 48.1-23.85 49.3-24.65 50.5-25.45 51.8-25.75L51.8-25.75Q52.35-25.6 53.27-24.88 54.2-24.15 55.1-23.25 56-22.35 56.7-21.43 57.4-20.5 57.55-19.9ZM41.05 2.9L41.05 2.9Q42.25 2.4 43.32 1.45 44.4 0.5 45.2-0.7 46-1.9 46.47-3.25 46.95-4.6 46.95-5.9L46.95-5.9Q45.95-5.75 44.75-4.98 43.55-4.2 42.5-3.13 41.45-2.05 40.75-0.9 40.05 0.25 40.05 1.1L40.05 1.1Q40.05 2.2 41.05 2.9ZM74.84-20.2L74.84-20.2Q75.34-20.2 76.02-20.03 76.7-19.85 77.25-19.58 77.8-19.3 78.17-19 78.55-18.7 78.55-18.45L78.55-18.45Q77.55-16.35 76.7-14.23 75.84-12.1 75.25-10.15 74.65-8.2 74.32-6.5 74-4.8 74-3.55L74-3.55Q74-2.15 74.3-1.23 74.59-0.3 75.3 0.1L75.3 0.1Q74.7 0.5 73.75 0.75 72.8 1 72.05 1L72.05 1Q69.34 1 69.34-2.7L69.34-2.7Q69.34-5.55 71.25-10.5L71.25-10.5Q70.25-8.2 68.95-6.18 67.65-4.15 66.3-2.6 64.95-1.05 63.57-0.08 62.2 0.9 61.05 1.1L61.05 1.1Q59.2 1 58.05-0.68 56.9-2.35 56.9-4.95L56.9-4.95Q56.9-7.75 58.1-10.85 59.3-13.95 61.17-16.6 63.05-19.25 65.25-21.03 67.45-22.8 69.5-22.9L69.5-22.9Q70-22.75 70.62-22.3 71.25-21.85 71.82-21.25 72.4-20.65 72.8-20.03 73.2-19.4 73.25-18.95L73.25-18.95Q71.25-18.65 69.12-17 67-15.35 65.27-13.03 63.55-10.7 62.45-8.05 61.35-5.4 61.35-3.1L61.35-3.1Q61.35-2.15 62.05-1.9L62.05-1.9Q63.5-2.2 65.4-4.38 67.3-6.55 70-11.1L70-11.1Q70.5-12 71.12-13.1 71.75-14.2 72.4-15.4 73.05-16.6 73.67-17.82 74.3-19.05 74.84-20.2ZM109.99-15.35L109.99-15.35Q109.19-15.3 108.04-14.33 106.89-13.35 105.57-11.83 104.24-10.3 102.82-8.45 101.39-6.6 100.07-4.78 98.74-2.95 97.59-1.35 96.44 0.25 95.64 1.2L95.64 1.2Q94.54 0.75 93.74-0.13 92.94-1 92.59-2.3L92.59-2.3Q92.84-3.85 93.29-5.53 93.74-7.2 94.47-9 95.19-10.8 96.27-12.78 97.34-14.75 98.89-16.95L98.89-16.95Q98.14-16.9 96.84-15.88 95.54-14.85 94.04-13.23 92.54-11.6 90.94-9.58 89.34-7.55 87.94-5.6L87.94-5.6Q86.09-3 84.87-1.05 83.64 0.9 83.09 1.25L83.09 1.25Q81.79 0.3 81.29-0.8 80.79-1.9 80.54-3.25L80.54-3.25Q80.59-4.45 80.92-6.25 81.24-8.05 81.84-9.95L81.84-9.95Q82.99-13.6 84.82-17.2 86.64-20.8 88.34-23.8L88.34-23.8Q89.74-23.5 90.87-22.85 91.99-22.2 93.24-20.95L93.24-20.95Q92.74-19.4 91.69-17.68 90.64-15.95 89.49-14.05 88.34-12.15 87.39-10.15 86.44-8.15 86.14-6.1L86.14-6.1Q87.54-8.1 89.47-10.7 91.39-13.3 93.42-15.6 95.44-17.9 97.44-19.5 99.44-21.1 101.04-21.1L101.04-21.1Q101.64-21.1 102.34-20.9 103.04-20.7 103.64-20.4 104.24-20.1 104.64-19.83 105.04-19.55 105.09-19.4L105.09-19.4Q104.84-18.4 103.92-16.68 102.99-14.95 101.94-13.05 100.89-11.15 99.99-9.38 99.09-7.6 98.94-6.55L98.94-6.55Q101.39-9.9 103.54-12.63 105.69-15.35 107.59-17.3 109.49-19.25 111.12-20.3 112.74-21.35 114.19-21.35L114.19-21.35Q115.19-21.35 116.07-20.83 116.94-20.3 117.29-19.3L117.29-19.3Q116.84-17.8 115.82-15.7 114.79-13.6 113.74-11.28 112.69-8.95 111.87-6.7 111.04-4.45 111.04-2.65L111.04-2.65Q111.04-1.6 111.34-1.28 111.64-0.95 112.19-0.95L112.19-0.95Q112.79-0.95 113.32-1.18 113.84-1.4 114.09-1.4L114.09-1.4Q114.39-1.2 114.44-0.9 114.49-0.6 114.49-0.35L114.49-0.35Q113.49 0.45 112.44 0.98 111.39 1.5 110.09 1.5L110.09 1.5Q108.89 1.5 108.12 1.1 107.34 0.7 106.84 0 106.34-0.7 106.14-1.6 105.94-2.5 105.94-3.55L105.94-3.55Q105.94-5.25 106.39-6.93 106.84-8.6 107.47-10.13 108.09-11.65 108.79-12.98 109.49-14.3 109.99-15.35ZM136.59-20.2L136.59-20.2Q137.09-20.2 137.77-20.03 138.44-19.85 138.99-19.58 139.54-19.3 139.92-19 140.29-18.7 140.29-18.45L140.29-18.45Q139.29-16.35 138.44-14.23 137.59-12.1 136.99-10.15 136.39-8.2 136.06-6.5 135.74-4.8 135.74-3.55L135.74-3.55Q135.74-2.15 136.04-1.23 136.34-0.3 137.04 0.1L137.04 0.1Q136.44 0.5 135.49 0.75 134.54 1 133.79 1L133.79 1Q131.09 1 131.09-2.7L131.09-2.7Q131.09-5.55 132.99-10.5L132.99-10.5Q131.99-8.2 130.69-6.18 129.39-4.15 128.04-2.6 126.69-1.05 125.32-0.08 123.94 0.9 122.79 1.1L122.79 1.1Q120.94 1 119.79-0.68 118.64-2.35 118.64-4.95L118.64-4.95Q118.64-7.75 119.84-10.85 121.04-13.95 122.92-16.6 124.79-19.25 126.99-21.03 129.19-22.8 131.24-22.9L131.24-22.9Q131.74-22.75 132.37-22.3 132.99-21.85 133.56-21.25 134.14-20.65 134.54-20.03 134.94-19.4 134.99-18.95L134.99-18.95Q132.99-18.65 130.87-17 128.74-15.35 127.02-13.03 125.29-10.7 124.19-8.05 123.09-5.4 123.09-3.1L123.09-3.1Q123.09-2.15 123.79-1.9L123.79-1.9Q125.24-2.2 127.14-4.38 129.04-6.55 131.74-11.1L131.74-11.1Q132.24-12 132.87-13.1 133.49-14.2 134.14-15.4 134.79-16.6 135.42-17.82 136.04-19.05 136.59-20.2Z" opacity="1" transform="matrix(1,0,0,1,0,0)" fill="#ffffff" class="wordmark-text-0" data-fill-palette-color="quaternary" id="text-0"></path></svg></g></svg></g><g transform="matrix(1,0,0,1,75.54432,163.05629610347327)"><svg viewBox="0 0 244.43135999999998 38.816285432335334" height="38.816285432335334" width="244.43135999999998"><g transform="matrix(1,0,0,1,0,0)"><svg width="244.43135999999998" viewBox="0.3500000238418579 -32.54999923706055 208.72999572753906 33.14999771118164" height="38.816285432335334" data-palette-color="#31c48d"><path d="M5.9 0.25L6.3-2.4Q8.7-2.6 9.68-3.03 10.65-3.45 10.98-4.53 11.3-5.6 11.3-8.15L11.3-8.15 11.3-29.15Q7.65-29.05 6.3-28.68 4.95-28.3 4.42-27.13 3.9-25.95 3.5-22.75L3.5-22.75 0.35-22.5Q0.85-26.95 1.05-32.1L1.05-32.1 1.55-32.55 6.05-32 21.6-32 26.2-32.55 26.7-32.1Q26.9-26.85 27.35-22.75L27.35-22.75 24.2-22.5Q23.7-25.85 23.2-27.05 22.7-28.25 21.45-28.63 20.2-29 16.8-29.15L16.8-29.15Q16.55-25.9 16.32-18.85 16.1-11.8 16.1-6.1L16.1-6.1Q16.1-4.25 16.75-3.48 17.4-2.7 18.9-2.7L18.9-2.7Q20.25-2.7 21.6-2.85L21.6-2.85 21.8-2.6 21.35 0.2Q16.55 0 13.4 0L13.4 0Q9.9 0 5.9 0.25L5.9 0.25ZM30.1 0.4L30.35-2Q32.2-2.3 32.8-2.98 33.4-3.65 33.4-5.3L33.4-5.3 33.45-20.55Q33.45-21.8 33.15-22.23 32.85-22.65 31.95-22.65L31.95-22.65 30.65-22.6 30.45-22.9 30.8-25.05Q31.3-25.05 32.72-25 34.15-24.95 35.6-24.95L35.6-24.95Q36.85-24.95 38.75-25.08 40.65-25.2 41.25-25.25L41.25-25.25 41-22.85Q39.85-22.65 39.37-22.4 38.9-22.15 38.72-21.63 38.55-21.1 38.5-19.9L38.5-19.9 38.25-14.15 44.05-14.1Q46.4-14.1 49.25-14.4L49.25-14.4 49.3-20.55Q49.3-21.8 49-22.23 48.7-22.65 47.8-22.65L47.8-22.65 46.45-22.6 46.3-22.9 46.6-25.05Q47.15-25 48.57-24.98 50-24.95 51.45-24.95L51.45-24.95Q52.65-24.95 54.6-25.08 56.55-25.2 57.15-25.25L57.15-25.25 56.95-22.9Q55.45-22.65 54.95-22.23 54.45-21.8 54.4-20.7L54.4-20.7Q54.2-17.3 54.05-12.68 53.9-8.05 53.9-5L53.9-5Q53.9-3.45 54.25-2.9 54.6-2.35 55.6-2.35L55.6-2.35Q56.15-2.35 56.6-2.4 57.05-2.45 57.2-2.45L57.2-2.45 57.4-2.2 57 0.1Q56.45 0.1 54.82 0.05 53.2 0 51.35 0L51.35 0 45.9 0.05 46.25-2.3Q48.05-2.3 48.65-3.05 49.25-3.8 49.25-6L49.25-6 49.25-11.2 44.25-11.25Q43.5-11.25 41.22-11.08 38.95-10.9 38.15-10.85L38.15-10.85 38.05-5Q38.05-3.4 38.37-2.85 38.7-2.3 39.7-2.3L39.7-2.3Q40.3-2.3 40.72-2.35 41.15-2.4 41.3-2.45L41.3-2.45 41.45-2.2 41.1 0.1Q40.6 0.1 39.25 0.05 37.9 0 36.55 0L36.55 0Q34.75 0 32.45 0.15 30.15 0.3 30.1 0.4L30.1 0.4ZM61.89 0.4L62.14-2.05Q63.89-2.25 64.55-2.98 65.19-3.7 65.19-5.4L65.19-5.4 65.25-20.55Q65.25-21.8 64.97-22.23 64.69-22.65 63.84-22.65L63.84-22.65 62.55-22.6 62.34-22.85 62.7-25.05Q63.39-25.05 65.37-25 67.34-24.95 69.64-24.95L69.64-24.95Q78.3-24.95 82.09-25.4L82.09-25.4 82.34-25.1Q82.25-24.5 81.89-22.45 81.55-20.4 81.39-18.1L81.39-18.1 78.19-17.9Q78.19-18.05 78.25-18.53 78.3-19 78.3-19.5L78.3-19.5Q78.3-20.7 77.94-21.2 77.59-21.7 76.5-21.88 75.39-22.05 72.8-22.05L72.8-22.05Q71.64-22.05 71.17-21.95 70.69-21.85 70.55-21.6 70.39-21.35 70.39-20.7L70.39-20.7 70.09-14.25 74-14.2Q74.89-14.2 76.62-14.38 78.34-14.55 78.89-14.6L78.89-14.6 79.14-14.25 78.55-11.2Q78-11.2 76.42-11.25 74.84-11.3 73.09-11.3L73.09-11.3Q71.8-11.3 69.94-11.05L69.94-11.05Q69.84-7.85 69.84-5.1L69.84-5.1Q69.84-4 70.02-3.53 70.19-3.05 70.75-2.9 71.3-2.75 72.64-2.75L72.64-2.75Q75.55-2.75 76.82-3.05 78.09-3.35 78.64-4.25 79.19-5.15 79.55-7.3L79.55-7.3 82.44-7.5 82.75-7.2Q82.59-6.6 82.22-4.5 81.84-2.4 81.64-0.1L81.64-0.1 81.25 0.25Q79.94 0.2 75.72 0.1 71.5 0 68.55 0L68.55 0Q66.34 0 64.39 0.18 62.45 0.35 61.89 0.4L61.89 0.4ZM110.29 0.6Q109.54 0.5 107.09 0.25 104.64 0 102.94 0L102.94 0Q101.34 0 99.44 0.23 97.54 0.45 96.94 0.55L96.94 0.55 97.24-2.25Q99.49-2.65 100.24-3.53 100.99-4.4 100.99-6.5L100.99-6.5 101.04-26.6Q101.04-28.2 100.69-28.75 100.34-29.3 99.34-29.3L99.34-29.3Q98.79-29.3 98.29-29.25 97.79-29.2 97.64-29.2L97.64-29.2 97.44-29.5 97.84-32.1Q98.44-32.1 100.14-32.02 101.84-31.95 103.54-31.95L103.54-31.95Q105.74-31.95 108.06-32.02 110.39-32.1 111.29-32.15L111.29-32.15Q116.19-32.15 119.89-30.3 123.59-28.45 125.61-25.08 127.64-21.7 127.64-17.2L127.64-17.2Q127.64-12.15 125.39-8.1 123.14-4.05 119.16-1.73 115.19 0.6 110.29 0.6L110.29 0.6ZM108.19-28.9Q107.24-28.9 106.91-28.68 106.59-28.45 106.54-27.75L106.54-27.75 106.49-26.45Q105.84-10.95 105.84-6.85L105.84-6.85Q105.84-5.15 106.29-4.28 106.74-3.4 107.89-3.05 109.04-2.7 111.24-2.7L111.24-2.7Q116.19-2.7 118.91-6.15 121.64-9.6 121.64-15.85L121.64-15.85Q121.64-22.35 118.24-25.63 114.84-28.9 108.19-28.9L108.19-28.9ZM143.09 0.3L142.94 0.05 143.09-2.1Q145.19-2.3 145.81-2.55 146.44-2.8 146.44-3.55L146.44-3.55Q146.44-4.2 146.14-5L146.14-5 145.19-8.25Q144.14-8.3 141.24-8.3L141.24-8.3Q139.69-8.3 137.19-8.05L137.19-8.05 135.99-4.85Q135.74-3.85 135.74-3.6L135.74-3.6Q135.74-2.85 136.21-2.55 136.69-2.25 137.84-2.25L137.84-2.25 139.69-2.25 139.89-2 139.59 0.25Q139.04 0.2 137.19 0.1 135.34 0 133.69 0L133.69 0Q132.04 0 130.69 0.05 129.34 0.1 128.89 0.1L128.89 0.1 129.19-2.3Q130.19-2.45 130.81-3.03 131.44-3.6 131.99-5L131.99-5 139.54-24.75 144.84-25.4 145.29-25.25Q145.89-23.05 147.84-16.23 149.79-9.4 151.34-5L151.34-5Q151.79-3.55 152.51-2.98 153.24-2.4 154.79-2.25L154.79-2.25 154.94-2 154.64 0.1Q154.14 0.1 152.71 0.05 151.29 0 149.79 0L149.79 0Q147.69 0 145.66 0.13 143.64 0.25 143.09 0.3L143.09 0.3ZM138.09-11.05L141.19-11.05Q143.14-11.05 144.49-11.2L144.49-11.2 141.84-20.2 141.34-20.2 138.09-11.05ZM176.73 0.6Q174.19 0.6 172.28-3L172.28-3 168.48-10 165.48-10 165.38-5.35Q165.38-3.95 165.58-3.35 165.78-2.75 166.36-2.55 166.94-2.35 168.33-2.3L168.33-2.3 168.48-2.1 168.03 0.15Q167.33 0.1 165.58 0.08 163.83 0.05 162.28 0.05L162.28 0.05Q160.83 0.05 159.36 0.13 157.88 0.2 157.44 0.25L157.44 0.25 157.78-2.2Q159.53-2.45 160.13-3.05 160.73-3.65 160.73-5.35L160.73-5.35 160.78-20.7Q160.78-21.85 160.48-22.25 160.19-22.65 159.44-22.65L159.44-22.65 157.98-22.6 157.78-22.85 158.13-25.05Q158.69-25.05 160.19-25 161.69-24.95 163.13-24.95L163.13-24.95Q164.73-24.95 166.51-25.03 168.28-25.1 168.98-25.15L168.98-25.15Q173.44-25.15 175.88-23.43 178.33-21.7 178.33-18.6L178.33-18.6Q178.33-16.3 176.86-14.38 175.38-12.45 172.63-11.15L172.63-11.15 176.48-5.35Q177.69-3.55 178.76-2.78 179.83-2 181.23-2L181.23-2 181.48-1.65 181.19 0.2 176.73 0.6ZM169.38-12.8Q173.19-14.25 173.19-17.85L173.19-17.85Q173.19-20.1 171.58-21.2 169.98-22.3 166.63-22.3L166.63-22.3Q166.23-22.3 166.08-22.13 165.94-21.95 165.94-21.4L165.94-21.4Q165.58-15.65 165.58-13.2L165.58-13.2 169.38-12.8ZM187.78-20.55Q187.78-21.8 187.48-22.23 187.18-22.65 186.28-22.65L186.28-22.65 184.98-22.6 184.78-22.9 185.13-25.05 190.33-24.95Q191.43-24.95 193.26-25.08 195.08-25.2 195.63-25.25L195.63-25.25 195.43-22.85Q193.88-22.6 193.36-22.13 192.83-21.65 192.78-20.6L192.78-20.6 192.38-5Q192.33-3.4 192.68-2.85 193.03-2.3 194.03-2.3L194.03-2.3Q194.63-2.3 195.08-2.35 195.53-2.4 195.68-2.45L195.68-2.45 195.83-2.2 195.48 0.1Q194.83 0.1 193.16 0.05 191.48 0 189.83 0L189.83 0Q188.08 0 186.53 0.05 184.98 0.1 184.43 0.1L184.43 0.1 184.83-2.25Q186.63-2.5 187.18-3.05 187.73-3.6 187.73-5.3L187.73-5.3 187.78-20.55ZM193.38-13.1L199.83-19.6Q200.98-20.65 200.98-21.5L200.98-21.5Q200.98-22.05 200.43-22.33 199.88-22.6 198.68-22.7L198.68-22.7 198.53-22.95 198.88-25.2Q199.43-25.15 201.11-25.05 202.78-24.95 203.83-24.95L203.83-24.95Q205.18-24.95 206.51-25 207.83-25.05 208.33-25.1L208.33-25.1 208.58-24.75 208.23-22.65Q207.03-22.25 205.96-21.38 204.88-20.5 203.08-18.5L203.08-18.5 198.08-13.45 203.98-5.5Q205.28-3.7 206.36-2.93 207.43-2.15 208.83-2.1L208.83-2.1 209.08-1.75 208.78 0.1Q208.18 0.15 206.76 0.33 205.33 0.5 204.38 0.55L204.38 0.55Q201.98 0.55 199.83-2.7L199.83-2.7 193.33-12.3 193.38-13.1Z" opacity="1" transform="matrix(1,0,0,1,0,0)" fill="#31c48d" class="slogan-text-1" data-fill-palette-color="secondary" id="text-1"></path></svg></g></svg></g></svg></g></svg></g><g></g></svg></g><defs></defs></svg><rect width="395.52" height="201.87258153580862" fill="none" stroke="none" visibility="hidden"></rect></g></svg></g></svg>